<?xml version="1.0" standalone="no"?>
 <!DOCTYPE svg PUBLIC "-//W3C//DTD SVG 1.1//EN" 
 "http://www.w3.org/Graphics/SVG/1.1/DTD/svg11.dtd"> 
<svg xmlns="http://www.w3.org/2000/svg" version="1.1" 
    width="29.7002cm" height="21.0007cm" viewBox="0 0 116930 82680 ">
<title>SVG Picture created as cutout-Edge.Cuts.svg date 2019/03/13 20:11:22 </title>
  <desc>Picture generated by PCBNEW </desc>
<g style="fill:#000000; fill-opacity:1;stroke:#000000; stroke-opacity:1;
stroke-linecap:round; stroke-linejoin:round; "
 transform="translate(0 0) scale(1 1)">
</g>
<g style="fill:#000000; fill-opacity:0.0; 
stroke:#000000; stroke-width:-0.000393701; stroke-opacity:1; 
stroke-linecap:round; stroke-linejoin:round;">
</g>
<g style="fill:#000000; fill-opacity:0.0; 
stroke:#000000; stroke-width:59.0551; stroke-opacity:1; 
stroke-linecap:round; stroke-linejoin:round;">
<path d="M91355 60183
L91355 52683
" />
<path d="M89856 61183.8 A1000 1000 0.0 0 0 90856 60183.8 " />
<path d="M81356 10183.8 A1000 1000 0.0 0 0 82356 11183.8 " />
<path d="M81355 20183
L81355 12683
" />
<path d="M89855 41183
L82355 41183
" />
<path d="M81356 20183.8 A1000 1000 0.0 0 0 82356 21183.8 " />
<path d="M99855 21183
L92355 21183
" />
<path d="M89855 21183
L82355 21183
" />
<path d="M89856 11183.8 A1000 1000 0.0 0 0 90856 10183.8 " />
<path d="M89856 31183.8 A1000 1000 0.0 0 0 90856 30183.8 " />
<path d="M91356 20183.8 A1000 1000 0.0 0 0 92356 21183.8 " />
<path d="M81355 10183
L81355 2683
" />
<path d="M89855 51683
L82355 51683
" />
<path d="M99855 11683
L92355 11683
" />
<path d="M81355 30183
L81355 22683
" />
<path d="M91355 70183
L91355 62683
" />
<path d="M81356 30183.8 A1000 1000 0.0 0 0 82356 31183.8 " />
<path d="M81356 60183.8 A1000 1000 0.0 0 0 82356 61183.8 " />
<path d="M99856 61183.8 A1000 1000 0.0 0 0 100856 60183.8 " />
<path d="M90856 62683.8 A1000 1000 0.0 0 0 89856 61683.8 " />
<path d="M99855 71683
L92355 71683
" />
<path d="M90856 2683.8 A1000 1000 0.0 0 0 89856 1683.8 " />
<path d="M90856 32683.8 A1000 1000 0.0 0 0 89856 31683.8 " />
<path d="M90855 32683
L90855 40183
" />
<path d="M89856 81183.8 A1000 1000 0.0 0 0 90856 80183.8 " />
<path d="M82356 21683.8 A1000 1000 0.0 0 0 81356 22683.8 " />
<path d="M99855 1683
L92355 1683
" />
<path d="M90855 2683
L90855 10183
" />
<path d="M92356 11683.8 A1000 1000 0.0 0 0 91356 12683.8 " />
<path d="M100855 52683
L100855 60183
" />
<path d="M91356 50183.8 A1000 1000 0.0 0 0 92356 51183.8 " />
<path d="M82356 1683.8 A1000 1000 0.0 0 0 81356 2683.8 " />
<path d="M81356 80183.8 A1000 1000 0.0 0 0 82356 81183.8 " />
<path d="M100855 42683
L100855 50183
" />
<path d="M89855 61183
L82355 61183
" />
<path d="M91356 80183.8 A1000 1000 0.0 0 0 92356 81183.8 " />
<path d="M90856 72683.8 A1000 1000 0.0 0 0 89856 71683.8 " />
<path d="M99855 61683
L92355 61683
" />
<path d="M99855 41183
L92355 41183
" />
<path d="M89855 81183
L82355 81183
" />
<path d="M90856 42683.8 A1000 1000 0.0 0 0 89856 41683.8 " />
<path d="M99855 81183
L92355 81183
" />
<path d="M92356 1683.8 A1000 1000 0.0 0 0 91356 2683.8 " />
<path d="M99856 11183.8 A1000 1000 0.0 0 0 100856 10183.8 " />
<path d="M99855 71183
L92355 71183
" />
<path d="M100856 22683.8 A1000 1000 0.0 0 0 99856 21683.8 " />
<path d="M82356 41683.8 A1000 1000 0.0 0 0 81356 42683.8 " />
<path d="M89855 61683
L82355 61683
" />
<path d="M89855 31683
L82355 31683
" />
<path d="M89856 71183.8 A1000 1000 0.0 0 0 90856 70183.8 " />
<path d="M100856 72683.8 A1000 1000 0.0 0 0 99856 71683.8 " />
<path d="M92356 51683.8 A1000 1000 0.0 0 0 91356 52683.8 " />
<path d="M91356 40183.8 A1000 1000 0.0 0 0 92356 41183.8 " />
<path d="M100855 2683
L100855 10183
" />
<path d="M90855 52683
L90855 60183
" />
<path d="M92356 61683.8 A1000 1000 0.0 0 0 91356 62683.8 " />
<path d="M91355 40183
L91355 32683
" />
<path d="M89855 11183
L82355 11183
" />
<path d="M91355 50183
L91355 42683
" />
<path d="M99855 21683
L92355 21683
" />
<path d="M81355 80183
L81355 72683
" />
<path d="M92356 41683.8 A1000 1000 0.0 0 0 91356 42683.8 " />
<path d="M89855 71183
L82355 71183
" />
<path d="M99856 41183.8 A1000 1000 0.0 0 0 100856 40183.8 " />
<path d="M99856 71183.8 A1000 1000 0.0 0 0 100856 70183.8 " />
<path d="M89855 71683
L82355 71683
" />
<path d="M99856 51183.8 A1000 1000 0.0 0 0 100856 50183.8 " />
<path d="M100856 12683.8 A1000 1000 0.0 0 0 99856 11683.8 " />
<path d="M99855 61183
L92355 61183
" />
<path d="M99856 31183.8 A1000 1000 0.0 0 0 100856 30183.8 " />
<path d="M99856 81183.8 A1000 1000 0.0 0 0 100856 80183.8 " />
<path d="M89856 51183.8 A1000 1000 0.0 0 0 90856 50183.8 " />
<path d="M91355 80183
L91355 72683
" />
<path d="M99855 31683
L92355 31683
" />
<path d="M99856 21183.8 A1000 1000 0.0 0 0 100856 20183.8 " />
<path d="M89855 41683
L82355 41683
" />
<path d="M81355 40183
L81355 32683
" />
<path d="M81355 50183
L81355 42683
" />
<path d="M100856 2683.8 A1000 1000 0.0 0 0 99856 1683.8 " />
<path d="M82356 51683.8 A1000 1000 0.0 0 0 81356 52683.8 " />
<path d="M81356 50183.8 A1000 1000 0.0 0 0 82356 51183.8 " />
<path d="M100855 12683
L100855 20183
" />
<path d="M100856 32683.8 A1000 1000 0.0 0 0 99856 31683.8 " />
<path d="M82356 61683.8 A1000 1000 0.0 0 0 81356 62683.8 " />
<path d="M100856 42683.8 A1000 1000 0.0 0 0 99856 41683.8 " />
<path d="M90855 42683
L90855 50183
" />
<path d="M91356 10183.8 A1000 1000 0.0 0 0 92356 11183.8 " />
<path d="M92356 21683.8 A1000 1000 0.0 0 0 91356 22683.8 " />
<path d="M91355 10183
L91355 2683
" />
<path d="M99855 51183
L92355 51183
" />
<path d="M99855 41683
L92355 41683
" />
<path d="M99855 11183
L92355 11183
" />
<path d="M99855 31183
L92355 31183
" />
<path d="M100855 72683
L100855 80183
" />
<path d="M91355 30183
L91355 22683
" />
<path d="M100855 22683
L100855 30183
" />
<path d="M91355 20183
L91355 12683
" />
<path d="M81356 40183.8 A1000 1000 0.0 0 0 82356 41183.8 " />
<path d="M92356 71683.8 A1000 1000 0.0 0 0 91356 72683.8 " />
<path d="M89855 11683
L82355 11683
" />
<path d="M82356 11683.8 A1000 1000 0.0 0 0 81356 12683.8 " />
<path d="M90855 12683
L90855 20183
" />
<path d="M89855 51183
L82355 51183
" />
<path d="M89855 21683
L82355 21683
" />
<path d="M89856 41183.8 A1000 1000 0.0 0 0 90856 40183.8 " />
<path d="M100855 62683
L100855 70183
" />
<path d="M91356 60183.8 A1000 1000 0.0 0 0 92356 61183.8 " />
<path d="M100856 52683.8 A1000 1000 0.0 0 0 99856 51683.8 " />
<path d="M90855 22683
L90855 30183
" />
<path d="M81355 60183
L81355 52683
" />
<path d="M81356 70183.8 A1000 1000 0.0 0 0 82356 71183.8 " />
<path d="M100856 62683.8 A1000 1000 0.0 0 0 99856 61683.8 " />
<path d="M82356 31683.8 A1000 1000 0.0 0 0 81356 32683.8 " />
<path d="M99855 51683
L92355 51683
" />
<path d="M89855 31183
L82355 31183
" />
<path d="M89855 1683
L82355 1683
" />
<path d="M90855 72683
L90855 80183
" />
<path d="M90856 12683.8 A1000 1000 0.0 0 0 89856 11683.8 " />
<path d="M89856 21183.8 A1000 1000 0.0 0 0 90856 20183.8 " />
<path d="M91356 30183.8 A1000 1000 0.0 0 0 92356 31183.8 " />
<path d="M91356 70183.8 A1000 1000 0.0 0 0 92356 71183.8 " />
<path d="M90855 62683
L90855 70183
" />
<path d="M100855 32683
L100855 40183
" />
<path d="M90856 22683.8 A1000 1000 0.0 0 0 89856 21683.8 " />
<path d="M81355 70183
L81355 62683
" />
<path d="M92356 31683.8 A1000 1000 0.0 0 0 91356 32683.8 " />
<path d="M82356 71683.8 A1000 1000 0.0 0 0 81356 72683.8 " />
<path d="M90856 52683.8 A1000 1000 0.0 0 0 89856 51683.8 " />
<path d="M80855 72683
L80855 80183
" />
<path d="M71355 30183
L71355 22683
" />
<path d="M71356 30183.8 A1000 1000 0.0 0 0 72356 31183.8 " />
<path d="M79855 51683
L72355 51683
" />
<path d="M71356 60183.8 A1000 1000 0.0 0 0 72356 61183.8 " />
<path d="M80855 22683
L80855 30183
" />
<path d="M72356 71683.8 A1000 1000 0.0 0 0 71356 72683.8 " />
<path d="M71356 70183.8 A1000 1000 0.0 0 0 72356 71183.8 " />
<path d="M80856 52683.8 A1000 1000 0.0 0 0 79856 51683.8 " />
<path d="M69855 21683
L62355 21683
" />
<path d="M69855 31183
L62355 31183
" />
<path d="M70855 12683
L70855 20183
" />
<path d="M69855 1683
L62355 1683
" />
<path d="M70855 72683
L70855 80183
" />
<path d="M80855 62683
L80855 70183
" />
<path d="M70856 22683.8 A1000 1000 0.0 0 0 69856 21683.8 " />
<path d="M71355 20183
L71355 12683
" />
<path d="M70855 62683
L70855 70183
" />
<path d="M62356 71683.8 A1000 1000 0.0 0 0 61356 72683.8 " />
<path d="M61356 70183.8 A1000 1000 0.0 0 0 62356 71183.8 " />
<path d="M61355 70183
L61355 62683
" />
<path d="M61355 60183
L61355 52683
" />
<path d="M69855 11683
L62355 11683
" />
<path d="M70856 12683.8 A1000 1000 0.0 0 0 69856 11683.8 " />
<path d="M62356 11683.8 A1000 1000 0.0 0 0 61356 12683.8 " />
<path d="M61356 40183.8 A1000 1000 0.0 0 0 62356 41183.8 " />
<path d="M70855 22683
L70855 30183
" />
<path d="M69856 21183.8 A1000 1000 0.0 0 0 70856 20183.8 " />
<path d="M62356 31683.8 A1000 1000 0.0 0 0 61356 32683.8 " />
<path d="M69855 51183
L62355 51183
" />
<path d="M72356 31683.8 A1000 1000 0.0 0 0 71356 32683.8 " />
<path d="M69856 41183.8 A1000 1000 0.0 0 0 70856 40183.8 " />
<path d="M80855 32683
L80855 40183
" />
<path d="M80856 62683.8 A1000 1000 0.0 0 0 79856 61683.8 " />
<path d="M70856 52683.8 A1000 1000 0.0 0 0 69856 51683.8 " />
<path d="M70856 62683.8 A1000 1000 0.0 0 0 69856 61683.8 " />
<path d="M62356 21683.8 A1000 1000 0.0 0 0 61356 22683.8 " />
<path d="M69856 61183.8 A1000 1000 0.0 0 0 70856 60183.8 " />
<path d="M69856 81183.8 A1000 1000 0.0 0 0 70856 80183.8 " />
<path d="M61355 20183
L61355 12683
" />
<path d="M70855 32683
L70855 40183
" />
<path d="M69855 41183
L62355 41183
" />
<path d="M61356 20183.8 A1000 1000 0.0 0 0 62356 21183.8 " />
<path d="M69855 21183
L62355 21183
" />
<path d="M61355 30183
L61355 22683
" />
<path d="M69856 31183.8 A1000 1000 0.0 0 0 70856 30183.8 " />
<path d="M71355 70183
L71355 62683
" />
<path d="M71355 60183
L71355 52683
" />
<path d="M70856 32683.8 A1000 1000 0.0 0 0 69856 31683.8 " />
<path d="M61356 30183.8 A1000 1000 0.0 0 0 62356 31183.8 " />
<path d="M79855 11683
L72355 11683
" />
<path d="M79856 61183.8 A1000 1000 0.0 0 0 80856 60183.8 " />
<path d="M71356 20183.8 A1000 1000 0.0 0 0 72356 21183.8 " />
<path d="M61356 60183.8 A1000 1000 0.0 0 0 62356 61183.8 " />
<path d="M69855 51683
L62355 51683
" />
<path d="M79855 21183
L72355 21183
" />
<path d="M70856 2683.8 A1000 1000 0.0 0 0 69856 1683.8 " />
<path d="M79855 71683
L72355 71683
" />
<path d="M59855 51683
L52355 51683
" />
<path d="M61356 10183.8 A1000 1000 0.0 0 0 62356 11183.8 " />
<path d="M69856 11183.8 A1000 1000 0.0 0 0 70856 10183.8 " />
<path d="M52356 71683.8 A1000 1000 0.0 0 0 51356 72683.8 " />
<path d="M61355 10183
L61355 2683
" />
<path d="M80856 72683.8 A1000 1000 0.0 0 0 79856 71683.8 " />
<path d="M71356 40183.8 A1000 1000 0.0 0 0 72356 41183.8 " />
<path d="M51356 60183.8 A1000 1000 0.0 0 0 52356 61183.8 " />
<path d="M80855 2683
L80855 10183
" />
<path d="M60855 22683
L60855 30183
" />
<path d="M69855 11183
L62355 11183
" />
<path d="M60856 52683.8 A1000 1000 0.0 0 0 59856 51683.8 " />
<path d="M60855 72683
L60855 80183
" />
<path d="M51356 30183.8 A1000 1000 0.0 0 0 52356 31183.8 " />
<path d="M51355 30183
L51355 22683
" />
<path d="M79855 61683
L72355 61683
" />
<path d="M51356 70183.8 A1000 1000 0.0 0 0 52356 71183.8 " />
<path d="M52356 31683.8 A1000 1000 0.0 0 0 51356 32683.8 " />
<path d="M60855 32683
L60855 40183
" />
<path d="M72356 41683.8 A1000 1000 0.0 0 0 71356 42683.8 " />
<path d="M79855 1683
L72355 1683
" />
<path d="M72356 1683.8 A1000 1000 0.0 0 0 71356 2683.8 " />
<path d="M51355 70183
L51355 62683
" />
<path d="M72356 61683.8 A1000 1000 0.0 0 0 71356 62683.8 " />
<path d="M70855 2683
L70855 10183
" />
<path d="M80856 22683.8 A1000 1000 0.0 0 0 79856 21683.8 " />
<path d="M72356 51683.8 A1000 1000 0.0 0 0 71356 52683.8 " />
<path d="M79856 11183.8 A1000 1000 0.0 0 0 80856 10183.8 " />
<path d="M51355 60183
L51355 52683
" />
<path d="M59856 61183.8 A1000 1000 0.0 0 0 60856 60183.8 " />
<path d="M51355 20183
L51355 12683
" />
<path d="M51356 20183.8 A1000 1000 0.0 0 0 52356 21183.8 " />
<path d="M79855 81183
L72355 81183
" />
<path d="M71355 50183
L71355 42683
" />
<path d="M60856 62683.8 A1000 1000 0.0 0 0 59856 61683.8 " />
<path d="M79855 41183
L72355 41183
" />
<path d="M80855 42683
L80855 50183
" />
<path d="M79855 71183
L72355 71183
" />
<path d="M79855 21683
L72355 21683
" />
<path d="M72356 11683.8 A1000 1000 0.0 0 0 71356 12683.8 " />
<path d="M60855 62683
L60855 70183
" />
<path d="M62356 1683.8 A1000 1000 0.0 0 0 61356 2683.8 " />
<path d="M59855 11683
L52355 11683
" />
<path d="M50855 62683
L50855 70183
" />
<path d="M50855 72683
L50855 80183
" />
<path d="M42356 71683.8 A1000 1000 0.0 0 0 41356 72683.8 " />
<path d="M41356 70183.8 A1000 1000 0.0 0 0 42356 71183.8 " />
<path d="M50856 52683.8 A1000 1000 0.0 0 0 49856 51683.8 " />
<path d="M50856 62683.8 A1000 1000 0.0 0 0 49856 61683.8 " />
<path d="M41355 70183
L41355 62683
" />
<path d="M41356 60183.8 A1000 1000 0.0 0 0 42356 61183.8 " />
<path d="M49855 51683
L42355 51683
" />
<path d="M41355 60183
L41355 52683
" />
<path d="M49856 61183.8 A1000 1000 0.0 0 0 50856 60183.8 " />
<path d="M71356 50183.8 A1000 1000 0.0 0 0 72356 51183.8 " />
<path d="M71355 40183
L71355 32683
" />
<path d="M61356 80183.8 A1000 1000 0.0 0 0 62356 81183.8 " />
<path d="M71356 80183.8 A1000 1000 0.0 0 0 72356 81183.8 " />
<path d="M70856 72683.8 A1000 1000 0.0 0 0 69856 71683.8 " />
<path d="M69855 31683
L62355 31683
" />
<path d="M61355 80183
L61355 72683
" />
<path d="M62356 41683.8 A1000 1000 0.0 0 0 61356 42683.8 " />
<path d="M69855 61683
L62355 61683
" />
<path d="M69856 71183.8 A1000 1000 0.0 0 0 70856 70183.8 " />
<path d="M70855 52683
L70855 60183
" />
<path d="M69855 81183
L62355 81183
" />
<path d="M70856 42683.8 A1000 1000 0.0 0 0 69856 41683.8 " />
<path d="M69855 61183
L62355 61183
" />
<path d="M80855 52683
L80855 60183
" />
<path d="M79856 41183.8 A1000 1000 0.0 0 0 80856 40183.8 " />
<path d="M79856 71183.8 A1000 1000 0.0 0 0 80856 70183.8 " />
<path d="M69855 41683
L62355 41683
" />
<path d="M70855 42683
L70855 50183
" />
<path d="M61356 50183.8 A1000 1000 0.0 0 0 62356 51183.8 " />
<path d="M61355 40183
L61355 32683
" />
<path d="M69856 51183.8 A1000 1000 0.0 0 0 70856 50183.8 " />
<path d="M69855 71683
L62355 71683
" />
<path d="M79856 51183.8 A1000 1000 0.0 0 0 80856 50183.8 " />
<path d="M71356 10183.8 A1000 1000 0.0 0 0 72356 11183.8 " />
<path d="M62356 51683.8 A1000 1000 0.0 0 0 61356 52683.8 " />
<path d="M80855 12683
L80855 20183
" />
<path d="M62356 61683.8 A1000 1000 0.0 0 0 61356 62683.8 " />
<path d="M80856 12683.8 A1000 1000 0.0 0 0 79856 11683.8 " />
<path d="M69855 71183
L62355 71183
" />
<path d="M61355 50183
L61355 42683
" />
<path d="M80856 42683.8 A1000 1000 0.0 0 0 79856 41683.8 " />
<path d="M71355 10183
L71355 2683
" />
<path d="M79855 11183
L72355 11183
" />
<path d="M79855 31183
L72355 31183
" />
<path d="M79855 51183
L72355 51183
" />
<path d="M79855 31683
L72355 31683
" />
<path d="M79855 41683
L72355 41683
" />
<path d="M71355 80183
L71355 72683
" />
<path d="M79855 61183
L72355 61183
" />
<path d="M79856 21183.8 A1000 1000 0.0 0 0 80856 20183.8 " />
<path d="M80856 32683.8 A1000 1000 0.0 0 0 79856 31683.8 " />
<path d="M80856 2683.8 A1000 1000 0.0 0 0 79856 1683.8 " />
<path d="M79856 81183.8 A1000 1000 0.0 0 0 80856 80183.8 " />
<path d="M72356 21683.8 A1000 1000 0.0 0 0 71356 22683.8 " />
<path d="M79856 31183.8 A1000 1000 0.0 0 0 80856 30183.8 " />
<path d="M50855 32683
L50855 40183
" />
<path d="M49855 11683
L42355 11683
" />
<path d="M42356 31683.8 A1000 1000 0.0 0 0 41356 32683.8 " />
<path d="M41355 30183
L41355 22683
" />
<path d="M50855 22683
L50855 30183
" />
<path d="M41356 30183.8 A1000 1000 0.0 0 0 42356 31183.8 " />
<path d="M41355 20183
L41355 12683
" />
<path d="M41356 20183.8 A1000 1000 0.0 0 0 42356 21183.8 " />
<path d="M49856 21183.8 A1000 1000 0.0 0 0 50856 20183.8 " />
<path d="M50856 22683.8 A1000 1000 0.0 0 0 49856 21683.8 " />
<path d="M50856 12683.8 A1000 1000 0.0 0 0 49856 11683.8 " />
<path d="M49855 21683
L42355 21683
" />
<path d="M41356 40183.8 A1000 1000 0.0 0 0 42356 41183.8 " />
<path d="M49855 21183
L42355 21183
" />
<path d="M42356 11683.8 A1000 1000 0.0 0 0 41356 12683.8 " />
<path d="M49856 41183.8 A1000 1000 0.0 0 0 50856 40183.8 " />
<path d="M49855 31183
L42355 31183
" />
<path d="M49856 31183.8 A1000 1000 0.0 0 0 50856 30183.8 " />
<path d="M50855 12683
L50855 20183
" />
<path d="M50856 32683.8 A1000 1000 0.0 0 0 49856 31683.8 " />
<path d="M42356 21683.8 A1000 1000 0.0 0 0 41356 22683.8 " />
<path d="M49855 1683
L42355 1683
" />
<path d="M49855 41183
L42355 41183
" />
<path d="M49856 81183.8 A1000 1000 0.0 0 0 50856 80183.8 " />
<path d="M49855 51183
L42355 51183
" />
<path d="M49856 71183.8 A1000 1000 0.0 0 0 50856 70183.8 " />
<path d="M50855 52683
L50855 60183
" />
<path d="M50856 72683.8 A1000 1000 0.0 0 0 49856 71683.8 " />
<path d="M49855 41683
L42355 41683
" />
<path d="M50855 42683
L50855 50183
" />
<path d="M41356 50183.8 A1000 1000 0.0 0 0 42356 51183.8 " />
<path d="M41355 40183
L41355 32683
" />
<path d="M49855 81183
L42355 81183
" />
<path d="M49855 31683
L42355 31683
" />
<path d="M41355 80183
L41355 72683
" />
<path d="M49856 51183.8 A1000 1000 0.0 0 0 50856 50183.8 " />
<path d="M49855 71683
L42355 71683
" />
<path d="M42356 41683.8 A1000 1000 0.0 0 0 41356 42683.8 " />
<path d="M50856 42683.8 A1000 1000 0.0 0 0 49856 41683.8 " />
<path d="M42356 61683.8 A1000 1000 0.0 0 0 41356 62683.8 " />
<path d="M49855 61683
L42355 61683
" />
<path d="M41356 80183.8 A1000 1000 0.0 0 0 42356 81183.8 " />
<path d="M49855 61183
L42355 61183
" />
<path d="M49855 71183
L42355 71183
" />
<path d="M41355 50183
L41355 42683
" />
<path d="M42356 51683.8 A1000 1000 0.0 0 0 41356 52683.8 " />
<path d="M59856 51183.8 A1000 1000 0.0 0 0 60856 50183.8 " />
<path d="M59856 41183.8 A1000 1000 0.0 0 0 60856 40183.8 " />
<path d="M60856 42683.8 A1000 1000 0.0 0 0 59856 41683.8 " />
<path d="M59855 31183
L52355 31183
" />
<path d="M59855 41683
L52355 41683
" />
<path d="M51355 80183
L51355 72683
" />
<path d="M51356 80183.8 A1000 1000 0.0 0 0 52356 81183.8 " />
<path d="M59855 51183
L52355 51183
" />
<path d="M51356 50183.8 A1000 1000 0.0 0 0 52356 51183.8 " />
<path d="M60855 12683
L60855 20183
" />
<path d="M59855 61183
L52355 61183
" />
<path d="M60855 52683
L60855 60183
" />
<path d="M59856 31183.8 A1000 1000 0.0 0 0 60856 30183.8 " />
<path d="M59856 81183.8 A1000 1000 0.0 0 0 60856 80183.8 " />
<path d="M51356 10183.8 A1000 1000 0.0 0 0 52356 11183.8 " />
<path d="M51355 10183
L51355 2683
" />
<path d="M60856 32683.8 A1000 1000 0.0 0 0 59856 31683.8 " />
<path d="M59856 71183.8 A1000 1000 0.0 0 0 60856 70183.8 " />
<path d="M52356 21683.8 A1000 1000 0.0 0 0 51356 22683.8 " />
<path d="M59855 11183
L52355 11183
" />
<path d="M59855 31683
L52355 31683
" />
<path d="M60856 2683.8 A1000 1000 0.0 0 0 59856 1683.8 " />
<path d="M51355 40183
L51355 32683
" />
<path d="M60856 12683.8 A1000 1000 0.0 0 0 59856 11683.8 " />
<path d="M59856 21183.8 A1000 1000 0.0 0 0 60856 20183.8 " />
<path d="M60856 22683.8 A1000 1000 0.0 0 0 59856 21683.8 " />
<path d="M59855 1683
L52355 1683
" />
<path d="M52356 61683.8 A1000 1000 0.0 0 0 51356 62683.8 " />
<path d="M59855 41183
L52355 41183
" />
<path d="M60855 42683
L60855 50183
" />
<path d="M59855 81183
L52355 81183
" />
<path d="M59855 71183
L52355 71183
" />
<path d="M52356 51683.8 A1000 1000 0.0 0 0 51356 52683.8 " />
<path d="M52356 1683.8 A1000 1000 0.0 0 0 51356 2683.8 " />
<path d="M59855 21683
L52355 21683
" />
<path d="M59856 11183.8 A1000 1000 0.0 0 0 60856 10183.8 " />
<path d="M60856 72683.8 A1000 1000 0.0 0 0 59856 71683.8 " />
<path d="M51356 40183.8 A1000 1000 0.0 0 0 52356 41183.8 " />
<path d="M59855 21183
L52355 21183
" />
<path d="M60855 2683
L60855 10183
" />
<path d="M59855 71683
L52355 71683
" />
<path d="M51355 50183
L51355 42683
" />
<path d="M52356 41683.8 A1000 1000 0.0 0 0 51356 42683.8 " />
<path d="M59855 61683
L52355 61683
" />
<path d="M52356 11683.8 A1000 1000 0.0 0 0 51356 12683.8 " />
<path d="M50855 2683
L50855 10183
" />
<path d="M42356 1683.8 A1000 1000 0.0 0 0 41356 2683.8 " />
<path d="M49855 11183
L42355 11183
" />
<path d="M50856 2683.8 A1000 1000 0.0 0 0 49856 1683.8 " />
<path d="M41356 10183.8 A1000 1000 0.0 0 0 42356 11183.8 " />
<path d="M49856 11183.8 A1000 1000 0.0 0 0 50856 10183.8 " />
<path d="M41355 10183
L41355 2683
" />
<path d="M39855 51683
L32355 51683
" />
<path d="M32356 71683.8 A1000 1000 0.0 0 0 31356 72683.8 " />
<path d="M31356 60183.8 A1000 1000 0.0 0 0 32356 61183.8 " />
<path d="M40855 22683
L40855 30183
" />
<path d="M40856 52683.8 A1000 1000 0.0 0 0 39856 51683.8 " />
<path d="M40855 72683
L40855 80183
" />
<path d="M31356 30183.8 A1000 1000 0.0 0 0 32356 31183.8 " />
<path d="M31355 30183
L31355 22683
" />
<path d="M31356 70183.8 A1000 1000 0.0 0 0 32356 71183.8 " />
<path d="M32356 31683.8 A1000 1000 0.0 0 0 31356 32683.8 " />
<path d="M40855 32683
L40855 40183
" />
<path d="M31355 70183
L31355 62683
" />
<path d="M31355 60183
L31355 52683
" />
<path d="M39856 61183.8 A1000 1000 0.0 0 0 40856 60183.8 " />
<path d="M31355 20183
L31355 12683
" />
<path d="M31356 20183.8 A1000 1000 0.0 0 0 32356 21183.8 " />
<path d="M40856 62683.8 A1000 1000 0.0 0 0 39856 61683.8 " />
<path d="M40855 62683
L40855 70183
" />
<path d="M39855 11683
L32355 11683
" />
<path d="M30855 62683
L30855 70183
" />
<path d="M30855 72683
L30855 80183
" />
<path d="M22356 71683.8 A1000 1000 0.0 0 0 21356 72683.8 " />
<path d="M21356 70183.8 A1000 1000 0.0 0 0 22356 71183.8 " />
<path d="M30856 52683.8 A1000 1000 0.0 0 0 29856 51683.8 " />
<path d="M30856 62683.8 A1000 1000 0.0 0 0 29856 61683.8 " />
<path d="M21355 70183
L21355 62683
" />
<path d="M21356 60183.8 A1000 1000 0.0 0 0 22356 61183.8 " />
<path d="M29855 51683
L22355 51683
" />
<path d="M21355 60183
L21355 52683
" />
<path d="M29856 61183.8 A1000 1000 0.0 0 0 30856 60183.8 " />
<path d="M30855 32683
L30855 40183
" />
<path d="M29855 11683
L22355 11683
" />
<path d="M22356 31683.8 A1000 1000 0.0 0 0 21356 32683.8 " />
<path d="M21355 30183
L21355 22683
" />
<path d="M30855 22683
L30855 30183
" />
<path d="M21356 30183.8 A1000 1000 0.0 0 0 22356 31183.8 " />
<path d="M21355 20183
L21355 12683
" />
<path d="M21356 20183.8 A1000 1000 0.0 0 0 22356 21183.8 " />
<path d="M29856 21183.8 A1000 1000 0.0 0 0 30856 20183.8 " />
<path d="M30856 22683.8 A1000 1000 0.0 0 0 29856 21683.8 " />
<path d="M30856 12683.8 A1000 1000 0.0 0 0 29856 11683.8 " />
<path d="M29855 21683
L22355 21683
" />
<path d="M21356 40183.8 A1000 1000 0.0 0 0 22356 41183.8 " />
<path d="M29855 21183
L22355 21183
" />
<path d="M22356 11683.8 A1000 1000 0.0 0 0 21356 12683.8 " />
<path d="M29856 41183.8 A1000 1000 0.0 0 0 30856 40183.8 " />
<path d="M29855 31183
L22355 31183
" />
<path d="M29856 31183.8 A1000 1000 0.0 0 0 30856 30183.8 " />
<path d="M30855 12683
L30855 20183
" />
<path d="M30856 32683.8 A1000 1000 0.0 0 0 29856 31683.8 " />
<path d="M22356 21683.8 A1000 1000 0.0 0 0 21356 22683.8 " />
<path d="M29855 1683
L22355 1683
" />
<path d="M29855 41183
L22355 41183
" />
<path d="M29856 81183.8 A1000 1000 0.0 0 0 30856 80183.8 " />
<path d="M29855 51183
L22355 51183
" />
<path d="M29856 71183.8 A1000 1000 0.0 0 0 30856 70183.8 " />
<path d="M30855 52683
L30855 60183
" />
<path d="M30856 72683.8 A1000 1000 0.0 0 0 29856 71683.8 " />
<path d="M29855 41683
L22355 41683
" />
<path d="M30855 42683
L30855 50183
" />
<path d="M21356 50183.8 A1000 1000 0.0 0 0 22356 51183.8 " />
<path d="M21355 40183
L21355 32683
" />
<path d="M29855 81183
L22355 81183
" />
<path d="M29855 31683
L22355 31683
" />
<path d="M21355 80183
L21355 72683
" />
<path d="M29856 51183.8 A1000 1000 0.0 0 0 30856 50183.8 " />
<path d="M29855 71683
L22355 71683
" />
<path d="M22356 41683.8 A1000 1000 0.0 0 0 21356 42683.8 " />
<path d="M30856 42683.8 A1000 1000 0.0 0 0 29856 41683.8 " />
<path d="M22356 61683.8 A1000 1000 0.0 0 0 21356 62683.8 " />
<path d="M29855 61683
L22355 61683
" />
<path d="M21356 80183.8 A1000 1000 0.0 0 0 22356 81183.8 " />
<path d="M29855 61183
L22355 61183
" />
<path d="M29855 71183
L22355 71183
" />
<path d="M21355 50183
L21355 42683
" />
<path d="M22356 51683.8 A1000 1000 0.0 0 0 21356 52683.8 " />
<path d="M39856 51183.8 A1000 1000 0.0 0 0 40856 50183.8 " />
<path d="M39856 41183.8 A1000 1000 0.0 0 0 40856 40183.8 " />
<path d="M40856 42683.8 A1000 1000 0.0 0 0 39856 41683.8 " />
<path d="M39855 31183
L32355 31183
" />
<path d="M39855 41683
L32355 41683
" />
<path d="M31355 80183
L31355 72683
" />
<path d="M31356 80183.8 A1000 1000 0.0 0 0 32356 81183.8 " />
<path d="M39855 51183
L32355 51183
" />
<path d="M31356 50183.8 A1000 1000 0.0 0 0 32356 51183.8 " />
<path d="M40855 12683
L40855 20183
" />
<path d="M39855 61183
L32355 61183
" />
<path d="M40855 52683
L40855 60183
" />
<path d="M39856 31183.8 A1000 1000 0.0 0 0 40856 30183.8 " />
<path d="M39856 81183.8 A1000 1000 0.0 0 0 40856 80183.8 " />
<path d="M31356 10183.8 A1000 1000 0.0 0 0 32356 11183.8 " />
<path d="M31355 10183
L31355 2683
" />
<path d="M40856 32683.8 A1000 1000 0.0 0 0 39856 31683.8 " />
<path d="M39856 71183.8 A1000 1000 0.0 0 0 40856 70183.8 " />
<path d="M32356 21683.8 A1000 1000 0.0 0 0 31356 22683.8 " />
<path d="M39855 11183
L32355 11183
" />
<path d="M39855 31683
L32355 31683
" />
<path d="M40856 2683.8 A1000 1000 0.0 0 0 39856 1683.8 " />
<path d="M31355 40183
L31355 32683
" />
<path d="M40856 12683.8 A1000 1000 0.0 0 0 39856 11683.8 " />
<path d="M39856 21183.8 A1000 1000 0.0 0 0 40856 20183.8 " />
<path d="M40856 22683.8 A1000 1000 0.0 0 0 39856 21683.8 " />
<path d="M39855 1683
L32355 1683
" />
<path d="M32356 61683.8 A1000 1000 0.0 0 0 31356 62683.8 " />
<path d="M39855 41183
L32355 41183
" />
<path d="M40855 42683
L40855 50183
" />
<path d="M39855 81183
L32355 81183
" />
<path d="M39855 71183
L32355 71183
" />
<path d="M32356 51683.8 A1000 1000 0.0 0 0 31356 52683.8 " />
<path d="M32356 1683.8 A1000 1000 0.0 0 0 31356 2683.8 " />
<path d="M39855 21683
L32355 21683
" />
<path d="M39856 11183.8 A1000 1000 0.0 0 0 40856 10183.8 " />
<path d="M40856 72683.8 A1000 1000 0.0 0 0 39856 71683.8 " />
<path d="M31356 40183.8 A1000 1000 0.0 0 0 32356 41183.8 " />
<path d="M39855 21183
L32355 21183
" />
<path d="M40855 2683
L40855 10183
" />
<path d="M39855 71683
L32355 71683
" />
<path d="M31355 50183
L31355 42683
" />
<path d="M32356 41683.8 A1000 1000 0.0 0 0 31356 42683.8 " />
<path d="M39855 61683
L32355 61683
" />
<path d="M32356 11683.8 A1000 1000 0.0 0 0 31356 12683.8 " />
<path d="M30855 2683
L30855 10183
" />
<path d="M22356 1683.8 A1000 1000 0.0 0 0 21356 2683.8 " />
<path d="M29855 11183
L22355 11183
" />
<path d="M30856 2683.8 A1000 1000 0.0 0 0 29856 1683.8 " />
<path d="M21356 10183.8 A1000 1000 0.0 0 0 22356 11183.8 " />
<path d="M29856 11183.8 A1000 1000 0.0 0 0 30856 10183.8 " />
<path d="M21355 10183
L21355 2683
" />
<path d="M20855 62683
L20855 70183
" />
<path d="M20855 72683
L20855 80183
" />
<path d="M12356 71683.8 A1000 1000 0.0 0 0 11356 72683.8 " />
<path d="M11356 70183.8 A1000 1000 0.0 0 0 12356 71183.8 " />
<path d="M20856 52683.8 A1000 1000 0.0 0 0 19856 51683.8 " />
<path d="M20856 62683.8 A1000 1000 0.0 0 0 19856 61683.8 " />
<path d="M11355 70183
L11355 62683
" />
<path d="M11356 60183.8 A1000 1000 0.0 0 0 12356 61183.8 " />
<path d="M19855 51683
L12355 51683
" />
<path d="M11355 60183
L11355 52683
" />
<path d="M19856 61183.8 A1000 1000 0.0 0 0 20856 60183.8 " />
<path d="M20855 32683
L20855 40183
" />
<path d="M19855 11683
L12355 11683
" />
<path d="M12356 31683.8 A1000 1000 0.0 0 0 11356 32683.8 " />
<path d="M11355 30183
L11355 22683
" />
<path d="M20855 22683
L20855 30183
" />
<path d="M11356 30183.8 A1000 1000 0.0 0 0 12356 31183.8 " />
<path d="M11355 20183
L11355 12683
" />
<path d="M11356 20183.8 A1000 1000 0.0 0 0 12356 21183.8 " />
<path d="M19856 21183.8 A1000 1000 0.0 0 0 20856 20183.8 " />
<path d="M20856 22683.8 A1000 1000 0.0 0 0 19856 21683.8 " />
<path d="M20856 12683.8 A1000 1000 0.0 0 0 19856 11683.8 " />
<path d="M19855 21683
L12355 21683
" />
<path d="M11356 40183.8 A1000 1000 0.0 0 0 12356 41183.8 " />
<path d="M19855 21183
L12355 21183
" />
<path d="M12356 11683.8 A1000 1000 0.0 0 0 11356 12683.8 " />
<path d="M19856 41183.8 A1000 1000 0.0 0 0 20856 40183.8 " />
<path d="M19855 31183
L12355 31183
" />
<path d="M19856 31183.8 A1000 1000 0.0 0 0 20856 30183.8 " />
<path d="M20855 12683
L20855 20183
" />
<path d="M20856 32683.8 A1000 1000 0.0 0 0 19856 31683.8 " />
<path d="M12356 21683.8 A1000 1000 0.0 0 0 11356 22683.8 " />
<path d="M19855 1683
L12355 1683
" />
<path d="M19855 41183
L12355 41183
" />
<path d="M19856 81183.8 A1000 1000 0.0 0 0 20856 80183.8 " />
<path d="M19855 51183
L12355 51183
" />
<path d="M19856 71183.8 A1000 1000 0.0 0 0 20856 70183.8 " />
<path d="M20855 52683
L20855 60183
" />
<path d="M20856 72683.8 A1000 1000 0.0 0 0 19856 71683.8 " />
<path d="M19855 41683
L12355 41683
" />
<path d="M20855 42683
L20855 50183
" />
<path d="M11356 50183.8 A1000 1000 0.0 0 0 12356 51183.8 " />
<path d="M11355 40183
L11355 32683
" />
<path d="M19855 81183
L12355 81183
" />
<path d="M19855 31683
L12355 31683
" />
<path d="M11355 80183
L11355 72683
" />
<path d="M19856 51183.8 A1000 1000 0.0 0 0 20856 50183.8 " />
<path d="M19855 71683
L12355 71683
" />
<path d="M12356 41683.8 A1000 1000 0.0 0 0 11356 42683.8 " />
<path d="M20856 42683.8 A1000 1000 0.0 0 0 19856 41683.8 " />
<path d="M12356 61683.8 A1000 1000 0.0 0 0 11356 62683.8 " />
<path d="M19855 61683
L12355 61683
" />
<path d="M11356 80183.8 A1000 1000 0.0 0 0 12356 81183.8 " />
<path d="M19855 61183
L12355 61183
" />
<path d="M19855 71183
L12355 71183
" />
<path d="M11355 50183
L11355 42683
" />
<path d="M12356 51683.8 A1000 1000 0.0 0 0 11356 52683.8 " />
<path d="M20855 2683
L20855 10183
" />
<path d="M12356 1683.8 A1000 1000 0.0 0 0 11356 2683.8 " />
<path d="M19855 11183
L12355 11183
" />
<path d="M20856 2683.8 A1000 1000 0.0 0 0 19856 1683.8 " />
<path d="M11356 10183.8 A1000 1000 0.0 0 0 12356 11183.8 " />
<path d="M19856 11183.8 A1000 1000 0.0 0 0 20856 10183.8 " />
<path d="M11355 10183
L11355 2683
" />
<path d="M10855 72683
L10855 80183
" />
<path d="M9855 51683
L2355 51683
" />
<path d="M2355.96 71683.8 A1000 1000 0.0 0 0 1355.96 72683.8 " />
<path d="M1355 70183
L1355 62683
" />
<path d="M10855 62683
L10855 70183
" />
<path d="M1355.96 70183.8 A1000 1000 0.0 0 0 2355.96 71183.8 " />
<path d="M1355 60183
L1355 52683
" />
<path d="M1355.96 60183.8 A1000 1000 0.0 0 0 2355.96 61183.8 " />
<path d="M9855.96 61183.8 A1000 1000 0.0 0 0 10856 60183.8 " />
<path d="M10856 62683.8 A1000 1000 0.0 0 0 9855.96 61683.8 " />
<path d="M10856 52683.8 A1000 1000 0.0 0 0 9855.96 51683.8 " />
<path d="M9855 61683
L2355 61683
" />
<path d="M1355.96 80183.8 A1000 1000 0.0 0 0 2355.96 81183.8 " />
<path d="M9855 61183
L2355 61183
" />
<path d="M2355.96 51683.8 A1000 1000 0.0 0 0 1355.96 52683.8 " />
<path d="M9855.96 81183.8 A1000 1000 0.0 0 0 10856 80183.8 " />
<path d="M9855 71183
L2355 71183
" />
<path d="M9855.96 71183.8 A1000 1000 0.0 0 0 10856 70183.8 " />
<path d="M10855 52683
L10855 60183
" />
<path d="M10856 72683.8 A1000 1000 0.0 0 0 9855.96 71683.8 " />
<path d="M2355.96 61683.8 A1000 1000 0.0 0 0 1355.96 62683.8 " />
<path d="M9855 41683
L2355 41683
" />
<path d="M9855 81183
L2355 81183
" />
<path d="M1355 80183
L1355 72683
" />
<path d="M9855 71683
L2355 71683
" />
<path d="M10855 42683
L10855 50183
" />
<path d="M2355.96 41683.8 A1000 1000 0.0 0 0 1355.96 42683.8 " />
<path d="M9855 51183
L2355 51183
" />
<path d="M10856 42683.8 A1000 1000 0.0 0 0 9855.96 41683.8 " />
<path d="M1355.96 50183.8 A1000 1000 0.0 0 0 2355.96 51183.8 " />
<path d="M9855.96 51183.8 A1000 1000 0.0 0 0 10856 50183.8 " />
<path d="M1355 50183
L1355 42683
" />
<path d="M9855 31683
L2355 31683
" />
<path d="M1355 40183
L1355 32683
" />
<path d="M1355.96 40183.8 A1000 1000 0.0 0 0 2355.96 41183.8 " />
<path d="M9855.96 41183.8 A1000 1000 0.0 0 0 10856 40183.8 " />
<path d="M10856 32683.8 A1000 1000 0.0 0 0 9855.96 31683.8 " />
<path d="M9855 41183
L2355 41183
" />
<path d="M2355.96 31683.8 A1000 1000 0.0 0 0 1355.96 32683.8 " />
<path d="M10855 32683
L10855 40183
" />
<path d="M9855 21683
L2355 21683
" />
<path d="M10855 22683
L10855 30183
" />
<path d="M2355.96 21683.8 A1000 1000 0.0 0 0 1355.96 22683.8 " />
<path d="M9855 31183
L2355 31183
" />
<path d="M10856 22683.8 A1000 1000 0.0 0 0 9855.96 21683.8 " />
<path d="M1355.96 30183.8 A1000 1000 0.0 0 0 2355.96 31183.8 " />
<path d="M9855.96 31183.8 A1000 1000 0.0 0 0 10856 30183.8 " />
<path d="M1355 30183
L1355 22683
" />
<path d="M9855 11683
L2355 11683
" />
<path d="M10855 12683
L10855 20183
" />
<path d="M2355.96 11683.8 A1000 1000 0.0 0 0 1355.96 12683.8 " />
<path d="M9855 21183
L2355 21183
" />
<path d="M10856 12683.8 A1000 1000 0.0 0 0 9855.96 11683.8 " />
<path d="M1355.96 20183.8 A1000 1000 0.0 0 0 2355.96 21183.8 " />
<path d="M9855.96 21183.8 A1000 1000 0.0 0 0 10856 20183.8 " />
<path d="M1355 20183
L1355 12683
" />
<path d="M9855 1683
L2355 1683
" />
<path d="M10856 2683.8 A1000 1000 0.0 0 0 9855.96 1683.8 " />
<path d="M2355.96 1683.8 A1000 1000 0.0 0 0 1355.96 2683.8 " />
<path d="M1355 10183
L1355 2683
" />
<path d="M1355.96 10183.8 A1000 1000 0.0 0 0 2355.96 11183.8 " />
<path d="M9855 11183
L2355 11183
" />
<path d="M9855.96 11183.8 A1000 1000 0.0 0 0 10856 10183.8 " />
<path d="M10855 2683
L10855 10183
" />
</g> 
</svg>
